<svg xmlns="http://www.w3.org/2000/svg" xmlns:xlink="http://www.w3.org/1999/xlink" xmlns:inkscape="http://www.inkscape.org/namespaces/inkscape" version="1.1" width="1437" height="526" viewBox="136 369 1437 526">
<g inkscape:groupmode="layer" inkscape:label="Layer 1">
<path transform="matrix(1,0,0,-1,0,1264)" d="M390.1558 449.9376C401.0681 449.9376 407.8596 449.7075 410.5414 449.2352 414.3631 448.5334 417.1487 447.1291 418.8986 445.0107 420.5906 443.0194 421.6612 440.3143 422.1099 436.919 422.3747 435.0081 422.513 431.2091 422.513 425.5228 422.513 418.8121 421.926 414.1386 420.7632 411.503 419.6353 408.9129 418.0122 407.0251 415.9057 405.8393 414.1675 404.8954 412.3834 404.2395 410.5414 403.8712 408.6884 403.4911 405.9717 403.2377 402.3689 403.1116 399.3531 403.0194 395.4969 402.9732 390.8004 402.9732 380.6133 402.9732 374.2132 403.2147 371.6002 403.71 368.009 404.3662 365.3498 405.5859 363.6462 407.3933 361.9542 409.1428 360.8031 411.664 360.1701 414.9445 359.7902 416.9704 359.5944 420.9304 359.5944 426.8466 359.5944 430.5991 359.6519 433.2583 359.7786 434.8352 359.9053 436.4121 360.1701 437.9547 360.5729 439.4857 361.4247 442.6279 363.0016 444.9994 365.2923 446.5996 367.7672 448.2799 371.9341 449.316 377.7817 449.6961 380.3255 449.8571 384.4466 449.9376 390.1558 449.9376ZM391.0422 438.6801C385.3559 438.6801 381.6493 438.5418 379.9227 438.277 377.2522 437.8742 375.537 436.873 374.8003 435.2842 374.1443 433.8456 373.822 430.9909 373.822 426.7089 373.822 422.1388 374.1327 419.1576 374.7657 417.799 375.5716 416.0497 377.4132 414.9677 380.291 414.5649 381.799 414.3458 384.9069 414.2307 389.6263 414.2307 397.2234 414.2307 401.8164 414.4382 403.4049 414.841 405.3387 415.3011 406.6509 416.1764 407.353 417.4656 407.9055 418.4668 408.274 420.0211 408.4237 422.1388 408.5158 423.3475 408.5617 424.9933 408.5617 427.0771 408.5617 431.405 408.2511 434.2139 407.6178 435.5144 407.215 436.3435 406.6855 436.9416 406.0293 437.2985 404.7976 437.9547 403.2553 438.3349 401.4133 438.45 398.9271 438.5993 395.4623 438.6801 391.0422 438.6801ZM458.8526 417.2698H467.9002V414.7143C467.9002 412.1932 467.7276 410.271 467.3937 408.9356 466.7837 406.4613 465.0225 404.7341 462.0986 403.7445 460.0729 403.0421 457.2757 402.6971 453.7071 402.6971 448.7346 402.6971 445.2007 402.9849 443.0826 403.5716 441.1718 404.113 439.5949 405.1372 438.3632 406.6452 437.3271 407.9228 436.7058 409.6037 436.5099 411.6753 436.441 412.3431 436.4065 413.2868 436.4065 414.4725V427.6295H430.3287V435.7103H436.4065V443.3071H448.4928V435.7103H467.9002V427.6295H448.4928V417.0047C448.4928 414.5414 448.8727 412.9645 449.644 412.2394 450.4153 411.5375 451.7734 411.1917 453.7417 411.1917 455.8598 411.1917 457.2986 411.5835 458.0354 412.3777 458.5765 412.9189 458.8526 414.104 458.8526 415.9573ZM498.4041 436.47C504.0445 436.47 508.6256 436.1703 512.1249 435.5603 514.7841 435.0886 516.9022 434.0871 518.502 432.5564 519.9409 431.1748 520.8157 429.1835 521.138 426.5705 521.3106 425.2235 521.4027 423.1862 521.4027 420.4585 521.4027 416.0268 521.1955 412.884 520.7927 411.0423 519.9639 407.3014 517.3971 404.8954 513.1035 403.8134 510.1566 403.0654 504.9998 402.6971 497.6328 402.6971 491.7623 402.6971 487.2271 403.0194 484.0384 403.6757 481.4254 404.1935 479.3649 405.3677 477.8342 407.1864 476.6139 408.6479 475.8659 410.7543 475.5779 413.5056 475.4628 414.7373 475.4052 416.7748 475.4052 419.5834 475.4052 423.9921 475.6816 427.1 476.2457 428.9071 477.3736 432.5102 480.3318 434.7434 485.1204 435.6298 488.1249 436.1939 492.5565 436.47 498.4041 436.47ZM498.1394 427.7679C493.8687 427.7679 491.0947 427.3994 489.8169 426.651 488.7811 426.0643 488.0789 425.12 487.722 423.8308 487.4803 422.8756 487.3535 421.3908 487.3535 419.3765 487.3535 417.1893 487.5378 415.635 487.8947 414.726 488.5047 413.1028 489.886 412.1014 492.0386 411.7448 493.4775 411.514 495.6644 411.3989 498.6113 411.3989 503.1235 411.3989 505.9896 411.7674 507.1983 412.5155 508.1193 413.0912 508.7639 413.9776 509.1208 415.1976 509.3393 415.9692 509.4544 417.3849 509.4544 419.4454 509.4544 422.0926 509.2359 423.9113 508.7869 424.8782 508.0847 426.352 506.5421 427.2384 504.1709 427.5258 502.8588 427.6868 500.8558 427.7679 498.1394 427.7679ZM592.5172 420.7918H606.0654C606.0654 415.1633 605.6626 411.4913 604.8567 409.7648 603.8898 407.6237 602.117 406.0123 599.5616 404.9303 598.146 404.3313 596.4077 403.8939 594.3589 403.6294 592.3213 403.376 589.3172 403.2266 585.3572 403.1804 581.3053 403.1342 577.6449 403.1116 574.3644 403.1116 568.3096 403.1116 563.6477 403.3298 560.3556 403.7562 554.3816 404.5158 550.6058 407.1515 549.0635 411.6753 548.2922 413.8968 547.8318 416.3947 547.6822 419.1576 547.5209 421.8282 547.4404 424.6251 547.4404 427.549 547.4404 432.8787 547.7281 436.7234 548.3151 439.0829 549.167 442.6515 550.9627 445.2299 553.6794 446.7951 555.6821 447.9693 557.9152 448.7173 560.3902 449.0629 563.7399 449.5575 568.6089 449.7993 574.9974 449.7993 583.6768 449.7993 589.7313 449.6496 593.1502 449.3619 597.6394 448.9591 600.8624 447.5778 602.7962 445.2182 604.569 443.0656 605.4554 439.4974 605.4554 434.5013 605.4554 434.2365 605.4667 433.8567 605.4667 433.362H592.0682C592.0106 434.5707 591.8264 435.5257 591.5387 436.2395 591.0783 437.379 589.858 438.1044 587.8551 438.4154 586.4854 438.6339 583.5385 438.749 579.0379 438.749 572.0508 438.749 567.9414 438.6339 566.7211 438.4154 564.2923 437.9431 562.7384 436.8495 562.0708 435.1462 561.5759 433.8456 561.3225 430.8525 561.3225 426.1674 561.3225 423.0828 561.5067 420.7462 561.8636 419.1803 562.4507 416.6824 564.0392 415.2322 566.6176 414.8065 568.5744 414.4725 571.5326 414.2999 575.4694 414.2999 581.4091 414.2999 585.2537 414.3804 587.0149 414.5304 589.0524 414.7143 590.5026 415.3127 591.3315 416.3142 592.0911 417.2355 592.494 418.7319 592.5172 420.7918ZM646.5606 403.4565V409.1658C646.1345 407.7615 645.6166 406.6795 645.0066 405.9082 643.7979 404.4008 641.6453 403.4449 638.572 403.0311 636.7878 402.8119 634.4855 402.6971 631.654 402.6971 627.6251 402.6971 624.5172 402.8811 622.3071 403.2377 619.0724 403.8018 616.9085 405.1721 615.8035 407.3587 615.1243 408.7284 614.7904 410.6738 614.7904 413.195 614.7904 416.4642 615.4237 418.847 616.6783 420.3544 617.91 421.8627 619.6941 422.8413 622.0077 423.2897 624.3446 423.7387 628.5115 423.9692 634.5201 423.9692 637.9965 423.9692 640.5174 423.7733 642.0713 423.3937 643.6023 422.9906 644.7073 422.3577 645.4094 421.4826 645.6742 421.1257 645.9506 420.6081 646.2153 419.94V423.5202C646.2153 425.9256 645.7663 427.434 644.8686 428.0207 644.1202 428.5276 642.7043 428.8266 640.6209 428.9417 639.0439 429.0338 637.5591 429.08 636.1662 429.08 632.4367 429.08 630.146 428.8844 629.2828 428.4927 628.5461 428.1704 628.1201 427.4685 628.005 426.3866H616.1717C616.2755 428.5043 616.6899 430.1274 617.3804 431.2783 618.3703 432.8552 620.1201 434.1217 622.6064 435.0886 624.9776 436.0093 630.2381 436.47 638.3993 436.47 642.4512 436.47 645.8238 436.297 648.5173 435.9634 653.0182 435.4226 655.9764 433.6038 657.3923 430.4959 658.0945 428.953 658.4397 427.388 658.4397 425.8108V423.5202 403.4565ZM635.8669 417.4078C632.5058 417.4078 630.1576 417.2238 628.8338 416.867 627.2569 416.4063 626.4626 415.3822 626.4626 413.7704 626.4626 411.8598 627.6827 410.6971 630.1114 410.2943 630.8827 410.1559 633.2655 410.0871 637.2598 410.0871 640.6095 410.0871 642.9002 410.271 644.1202 410.6279 645.6512 411.0885 646.4225 412.1476 646.4225 413.8279 646.4225 415.6696 645.2368 416.7748 642.8656 417.1314 641.6799 417.316 639.3433 417.4078 635.8669 417.4078ZM668.5118 403.4565V435.7103H680.0457V429.1373C680.5176 430.6686 681.0588 431.8194 681.6688 432.5791 683.6601 435.1691 687.6774 436.47 693.7092 436.47 701.8934 436.47 706.9238 433.9834 708.8114 428.9995 709.5135 431.5895 710.9178 433.4771 713.0245 434.6396 715.2344 435.8599 718.492 436.47 722.8086 436.47 729.9108 436.47 734.7915 434.8585 737.439 431.6355 739.3728 429.3218 740.3397 425.8797 740.3397 421.2986V403.4565H728.4606V420.389C728.4606 423.1979 727.7009 425.0741 726.1699 426.0297 724.9842 426.7777 722.8548 427.1462 719.8044 427.1462 716.1208 427.1462 713.6229 426.5589 712.3224 425.3851 711.4935 424.6367 710.941 423.6469 710.6647 422.4033 710.4691 421.5404 710.3653 420.3434 710.3653 418.8121V403.4565H698.4862V419.7906C698.4862 421.5285 698.3827 422.7834 698.1868 423.5547 697.7149 425.2005 696.5983 426.2715 694.8488 426.7777 693.7668 427.0657 692.0977 427.2151 689.83 427.2151 686.1234 427.2151 683.5796 426.5705 682.2099 425.281 681.3581 424.51 680.817 423.5547 680.5981 422.4033 680.4601 421.7933 680.3912 420.9185 680.3912 419.7906V403.4565ZM820.3175 449.5232H830.0673L780.6626 389.4367H770.671ZM867.3627 403.4565 893.2623 449.5232H912.0481L937.2336 403.4565H921.9243L917.3429 411.6753H887.6333L883.2132 403.4565ZM892.6866 421.2754H912.4855L902.471 439.6351ZM985.9941 435.7103V403.4565H974.4602V410.9502C974.0344 409.3503 973.5854 408.1533 973.1134 407.3587 971.9623 405.4944 970.0169 404.1935 967.2888 403.4795 965.4012 402.9616 962.8112 402.6971 959.5191 402.6971 954.8456 402.6971 951.2311 403.3188 948.6643 404.5504 946.6614 405.5054 945.0845 406.9446 943.9333 408.8784 942.7363 410.904 942.1376 414.1386 942.1376 418.5703V435.7103H954.017V419.0771C954.017 417.0626 954.2701 415.6007 954.7651 414.7027 955.26 413.7704 956.0772 413.1145 957.2284 412.7343 958.7823 412.2167 961.05 411.952 964.0545 411.952 968.3478 411.952 971.2142 412.8148 972.6299 414.5304 973.62 415.7274 974.1149 417.9257 974.1149 421.1376V435.7103ZM1022.311 417.2698H1031.3587V414.7143C1031.3587 412.1932 1031.186 410.271 1030.852 408.9356 1030.242 406.4613 1028.481 404.7341 1025.5569 403.7445 1023.5313 403.0421 1020.7341 402.6971 1017.1655 402.6971 1012.193 402.6971 1008.6591 402.9849 1006.541 403.5716 1004.6302 404.113 1003.0533 405.1372 1001.8216 406.6452 1000.7855 407.9228 1000.1642 409.6037 999.9683 411.6753 999.8994 412.3431 999.8649 413.2868 999.8649 414.4725V427.6295H993.7871V435.7103H999.8649V443.3071H1011.9512V435.7103H1031.3587V427.6295H1011.9512V417.0047C1011.9512 414.5414 1012.3311 412.9645 1013.1024 412.2394 1013.8737 411.5375 1015.2317 411.1917 1017.2001 411.1917 1019.3182 411.1917 1020.757 411.5835 1021.4938 412.3777 1022.0349 412.9189 1022.311 414.104 1022.311 415.9573ZM1061.8626 436.47C1067.5029 436.47 1072.084 436.1703 1075.5833 435.5603 1078.2426 435.0886 1080.3606 434.0871 1081.9605 432.5564 1083.3993 431.1748 1084.274 429.1835 1084.5964 426.5705 1084.769 425.2235 1084.8611 423.1862 1084.8611 420.4585 1084.8611 416.0268 1084.6539 412.884 1084.2511 411.0423 1083.4223 407.3014 1080.8555 404.8954 1076.5619 403.8134 1073.615 403.0654 1068.4583 402.6971 1061.0912 402.6971 1055.2207 402.6971 1050.6856 403.0194 1047.4968 403.6757 1044.8838 404.1935 1042.8233 405.3677 1041.2926 407.1864 1040.0723 408.6479 1039.3244 410.7543 1039.0363 413.5056 1038.9212 414.7373 1038.8637 416.7748 1038.8637 419.5834 1038.8637 423.9921 1039.14 427.1 1039.7041 428.9071 1040.832 432.5102 1043.7902 434.7434 1048.5789 435.6298 1051.5833 436.1939 1056.0149 436.47 1061.8626 436.47ZM1061.5978 427.7679C1057.3272 427.7679 1054.5531 427.3994 1053.2752 426.651 1052.2395 426.0643 1051.5374 425.12 1051.1804 423.8308 1050.9386 422.8756 1050.8119 421.3908 1050.8119 419.3765 1050.8119 417.1893 1050.9962 415.635 1051.3532 414.726 1051.9631 413.1028 1053.3444 412.1014 1055.497 411.7448 1056.9359 411.514 1059.1228 411.3989 1062.0697 411.3989 1066.5819 411.3989 1069.448 411.7674 1070.6567 412.5155 1071.5778 413.0912 1072.2223 413.9776 1072.5792 415.1976 1072.7977 415.9692 1072.9129 417.3849 1072.9129 419.4454 1072.9129 422.0926 1072.6943 423.9113 1072.2453 424.8782 1071.5431 426.352 1070.0005 427.2384 1067.6293 427.5258 1066.3173 427.6868 1064.3142 427.7679 1061.5978 427.7679ZM1170.8477 433.9142H1157.1151C1157.0689 435.4798 1156.7697 436.608 1156.2288 437.2869 1155.3307 438.4267 1153.6849 439.0024 1151.3021 439.0251H1147.7568 1142.83L1137.6615 438.9562C1134.3005 438.9562 1132.2747 438.9446 1131.5724 438.91 1130.8816 438.8754 1130.122 438.7606 1129.3163 438.5531 1127.6932 438.1733 1126.5537 437.3909 1125.8975 436.1939 1125.2415 435.0081 1124.9192 431.3245 1124.9192 425.1779 1124.9192 421.5285 1125.1723 419.0652 1125.6674 417.7534 1126.404 415.8196 1127.9234 414.6109 1130.2257 414.1159 1131.5032 413.8279 1134.4385 413.6786 1139.0086 413.6786H1144.8445C1148.4473 413.6786 1150.7839 413.7358 1151.843 413.8509 1154.9049 414.1159 1156.6431 415.3473 1157.0805 417.5342 1157.1381 418.0297 1157.1727 418.847 1157.1727 419.9862V420.7229H1139.4227V429.3561H1170.8477V422.9563C1170.8477 416.5673 1170.456 412.3315 1169.6618 410.2483 1168.7871 407.9344 1167.4862 406.3 1165.7483 405.3331 1163.4114 404.009 1160.58 403.2955 1157.2532 403.1804 1155.2964 403.1342 1149.2647 403.1116 1139.1696 403.1116 1130.4213 403.1116 1124.7695 403.3877 1122.2025 403.9517 1118.6918 404.6998 1116.1018 406.0582 1114.4441 408.0382 1112.8671 409.9025 1111.831 412.5271 1111.3362 415.9227 1111.0484 417.7879 1110.8988 421.1141 1110.8988 425.903 1110.8988 431.0943 1111.06 434.7085 1111.3707 436.7577 1112.004 440.6601 1113.2932 443.5722 1115.25 445.4827 1117.5407 447.7277 1121.7997 449.0629 1128.0039 449.466 1131.3998 449.6842 1136.05 449.7993 1141.9668 449.7993 1152.5913 449.7993 1159.1065 449.5003 1161.5352 448.8902 1165.7483 447.8542 1168.4649 445.794 1169.6964 442.7203 1170.4907 440.7866 1170.8705 437.851 1170.8477 433.9142ZM1180.9769 403.4565V449.5232H1192.8563V403.4565ZM1233.3861 403.4565V409.1658C1232.96 407.7615 1232.4421 406.6795 1231.8322 405.9082 1230.6234 404.4008 1228.4708 403.4449 1225.3975 403.0311 1223.6134 402.8119 1221.3112 402.6971 1218.4795 402.6971 1214.4506 402.6971 1211.3427 402.8811 1209.1326 403.2377 1205.898 403.8018 1203.734 405.1721 1202.629 407.3587 1201.95 408.7284 1201.6159 410.6738 1201.6159 413.195 1201.6159 416.4642 1202.2492 418.847 1203.5038 420.3544 1204.7355 421.8627 1206.5197 422.8413 1208.8333 423.2897 1211.17 423.7387 1215.337 423.9692 1221.3456 423.9692 1224.822 423.9692 1227.3429 423.7733 1228.8969 423.3937 1230.4279 422.9906 1231.5328 422.3577 1232.2349 421.4826 1232.4998 421.1257 1232.7761 420.6081 1233.0408 419.94V423.5202C1233.0408 425.9256 1232.5918 427.434 1231.6941 428.0207 1230.9457 428.5276 1229.5298 428.8266 1227.4464 428.9417 1225.8694 429.0338 1224.3847 429.08 1222.9917 429.08 1219.2622 429.08 1216.9716 428.8844 1216.1083 428.4927 1215.3716 428.1704 1214.9456 427.4685 1214.8305 426.3866H1202.9973C1203.101 428.5043 1203.5154 430.1274 1204.206 431.2783 1205.1958 432.8552 1206.9456 434.1217 1209.4319 435.0886 1211.8031 436.0093 1217.0636 436.47 1225.2249 436.47 1229.2767 436.47 1232.6494 436.297 1235.3428 435.9634 1239.8438 435.4226 1242.8019 433.6038 1244.2178 430.4959 1244.92 428.953 1245.2653 427.388 1245.2653 425.8108V423.5202 403.4565ZM1222.6924 417.4078C1219.3313 417.4078 1216.9832 417.2238 1215.6593 416.867 1214.0824 416.4063 1213.2882 415.3822 1213.2882 413.7704 1213.2882 411.8598 1214.5082 410.6971 1216.9369 410.2943 1217.7083 410.1559 1220.091 410.0871 1224.0853 410.0871 1227.435 410.0871 1229.7257 410.271 1230.9457 410.6279 1232.4767 411.0885 1233.248 412.1476 1233.248 413.8279 1233.248 415.6696 1232.0623 416.7748 1229.691 417.1314 1228.5054 417.316 1226.1688 417.4078 1222.6924 417.4078ZM1253.7374 413.4022H1266.284C1266.3071 412.2048 1266.8253 411.3646 1267.8381 410.8694 1268.9317 410.3056 1272.0626 410.0176 1277.208 410.0176 1281.2828 410.0176 1283.8958 410.3056 1285.07 410.8929 1286.0138 411.3646 1286.4859 412.0554 1286.4859 412.9532 1286.4859 414.5071 1285.3346 415.3706 1283.044 415.5429 1281.9849 415.635 1279.9131 415.6812 1276.8399 415.6812H1270.9346C1265.8123 415.6812 1262.0368 416.084 1259.585 416.9015 1255.9243 418.1102 1254.0944 420.988 1254.0944 425.5228 1254.0944 430.772 1256.1203 433.9834 1260.1604 435.1462 1263.3029 436.0326 1268.644 436.47 1276.1719 436.47 1281.2715 436.47 1285.3346 436.2744 1288.3737 435.8942 1292.529 435.3766 1295.142 433.7765 1296.1895 431.0943 1296.6154 430.035 1296.8685 428.6081 1296.9378 426.8007H1284.46C1284.3218 427.7446 1283.7232 428.3776 1282.6757 428.6999 1281.7318 428.9995 1279.6138 429.1489 1276.3103 429.1489 1271.6253 429.1489 1268.7361 428.8609 1267.6309 428.2741 1266.8023 427.8368 1266.388 427.2267 1266.388 426.4438 1266.388 425.5115 1266.9058 424.8782 1267.9302 424.51 1268.8742 424.1993 1270.946 424.0383 1274.1693 424.0383H1282.5377C1287.1074 424.0383 1290.526 423.7041 1292.8054 423.0252 1295.096 422.346 1296.6846 421.1719 1297.5593 419.5026 1298.2844 418.1788 1298.6414 416.2796 1298.6414 413.8279 1298.6414 410.6628 1297.9276 408.3029 1296.5117 406.7257 1294.7852 404.7803 1291.7348 403.5949 1287.3722 403.1688 1283.9766 402.8581 1279.6943 402.6971 1274.5145 402.6971 1269.6569 402.6971 1265.9505 402.8465 1263.3834 403.1342 1259.2282 403.5835 1256.3963 405.1721 1254.9115 407.9001 1254.1519 409.2925 1253.7604 411.1228 1253.7374 413.4022ZM1305.5017 413.4022H1318.0484C1318.0714 412.2048 1318.5896 411.3646 1319.6024 410.8694 1320.696 410.3056 1323.8269 410.0176 1328.9723 410.0176 1333.0471 410.0176 1335.6602 410.3056 1336.8342 410.8929 1337.7781 411.3646 1338.2501 412.0554 1338.2501 412.9532 1338.2501 414.5071 1337.099 415.3706 1334.8084 415.5429 1333.7493 415.635 1331.6774 415.6812 1328.6041 415.6812H1322.699C1317.5765 415.6812 1313.801 416.084 1311.3493 416.9015 1307.6887 418.1102 1305.8587 420.988 1305.8587 425.5228 1305.8587 430.772 1307.8845 433.9834 1311.9248 435.1462 1315.0673 436.0326 1320.4083 436.47 1327.9363 436.47 1333.0358 436.47 1337.099 436.2744 1340.138 435.8942 1344.2933 435.3766 1346.9063 433.7765 1347.9537 431.0943 1348.3798 430.035 1348.6329 428.6081 1348.702 426.8007H1336.2243C1336.086 427.7446 1335.4876 428.3776 1334.4401 428.6999 1333.4961 428.9995 1331.378 429.1489 1328.0746 429.1489 1323.3895 429.1489 1320.5004 428.8609 1319.3952 428.2741 1318.5667 427.8368 1318.1522 427.2267 1318.1522 426.4438 1318.1522 425.5115 1318.67 424.8782 1319.6945 424.51 1320.6386 424.1993 1322.7103 424.0383 1325.9336 424.0383H1334.302C1338.8717 424.0383 1342.2903 423.7041 1344.5697 423.0252 1346.8604 422.346 1348.4489 421.1719 1349.3237 419.5026 1350.0488 418.1788 1350.4057 416.2796 1350.4057 413.8279 1350.4057 410.6628 1349.6919 408.3029 1348.276 406.7257 1346.5494 404.7803 1343.499 403.5949 1339.1365 403.1688 1335.7409 402.8581 1331.4586 402.6971 1326.2788 402.6971 1321.4212 402.6971 1317.7149 402.8465 1315.1477 403.1342 1310.9924 403.5835 1308.1607 405.1721 1306.6758 407.9001 1305.9163 409.2925 1305.5247 411.1228 1305.5017 413.4022" fill="#484c4a"/>
<path transform="matrix(1,0,0,-1,0,1264)" d="M156.8395 597.7137V491.125H276.626V511.4894H185.3901V536.0749H270.4433V553.2627H185.3901V577.3487H275.4578V597.7137ZM306.4765 491.125H335.5288V533.9035H355.9005L406.254 491.125H447.7303L380.5807 545.0207 441.8008 597.7137H402.7051L356.6965 556.1033H335.5288V597.7137H306.4765ZM539.4022 598.7137C529.5705 598.7137 519.427 598.7673 509.6174 598.1343 500.9882 597.5793 487.9431 596.1044 480.6261 591.0659 475.1028 587.2635 471.8945 581.6285 470.1784 575.2312 469.2268 571.6845 468.6256 568.0723 468.3311 564.4159 467.8296 558.1726 467.8929 551.5466 467.8929 545.2809 467.8929 536.8637 467.6689 525.1844 469.2413 516.9421 470.4097 510.8275 472.6491 504.4791 477.0235 499.8977 481.5729 495.1315 488.6442 492.8681 494.949 491.6971 499.9365 490.7721 505.8904 490.5992 510.9585 490.4048 520.9413 490.0175 530.97 489.9543 540.9601 489.9543 550.2538 489.9543 559.5814 489.9807 568.8703 490.2874 575.1312 490.4972 582.0905 490.8331 588.2391 492.0795 592.5552 492.9528 596.6666 494.4504 600.5197 496.5851 605.5682 499.3815 608.9372 503.9169 611.2253 509.1355 614.9398 517.6069 615.2539 532.9417 615.2539 542.0801 615.2539 550.6214 615.4364 560.8721 614.2997 569.3258 613.4185 575.8761 611.3835 582.5239 607.0751 587.6674 602.4404 593.2026 595.1988 595.8096 588.2905 597.056 583.0739 597.9983 576.7523 598.1275 571.4481 598.3047 560.7839 598.6675 550.0735 598.7137 539.4022 598.7137ZM572.0349 513.8702C563.817 511.8545 546.7218 512.3242 538.1192 512.3242 530.9799 512.3242 522.2483 512.1564 515.1915 513.157 509.0573 514.0261 502.7287 516.3868 499.9584 522.3702 497.4999 527.6721 497.4489 539.1442 497.4489 544.9473 497.4489 550.8334 497.5534 561.31 500.0363 566.7143 502.5946 572.271 508.6145 574.484 514.2764 575.3458 522.504 576.5944 533.1974 576.3458 541.544 576.3458 549.9227 576.3458 558.4229 576.2948 566.7868 575.7837 570.9492 575.5309 575.2528 574.7031 578.9577 572.7144 581.18 571.5215 582.7479 569.5594 583.8384 567.32 586.3017 562.2593 586.3674 551.408 586.3674 545.8382 586.3674 541.8147 586.3187 537.73 586.0267 533.7162 585.7418 529.7751 585.0675 524.9262 583.1444 521.4163 580.8197 517.1706 576.582 514.9826 572.0349 513.8702ZM646.7185 491.125H752.6373V513.8289H675.7705V597.7137H646.7185ZM916.977 564.8153C916.9089 570.6354 916.4197 577.7167 914.3748 582.7745 911.2323 590.5423 904.0635 594.3274 896.2985 596.2504 891.7027 597.3919 885.2692 597.6085 880.5322 597.8305 870.2308 598.3098 859.8515 598.3807 849.5402 598.3807 838.3819 598.3807 827.0529 598.2976 815.9168 597.577 806.9953 597.0005 793.3346 595.2206 786.6017 588.6315 781.4021 583.5441 779.0289 575.8812 777.9189 568.8782 776.658 560.9378 776.8066 551.0477 776.8066 542.9976 776.8066 535.4977 776.7357 526.6301 777.8387 519.2107 778.7659 512.979 780.6815 506.2535 784.8125 501.3439 789.126 496.2172 795.8565 493.6445 802.2339 492.2668 813.3024 489.8761 831.3761 490.2902 842.773 490.2902 857.2249 490.2902 872.0198 490.015 886.4521 490.4555 893.1997 490.6602 899.9524 492.0182 905.8844 495.3532 910.042 497.6898 912.6099 501.6093 914.2702 505.986 916.977 513.1179 916.9818 528.2464 916.9818 535.8679V548.9201H845.8183V532.9006H888.7646V528.6847C888.7646 526.6593 888.7575 524.4854 888.5092 522.3728 887.0049 514.8289 880.6272 512.0203 873.6704 511.4166 868.2883 510.8323 861.9545 510.9883 856.5018 510.9883H842.3836C836.208 510.9883 826.615 510.791 820.6121 512.1028 814.6604 513.4054 810.0283 516.6207 807.8278 522.4164 805.9388 527.3943 805.8609 535.9504 805.8609 541.2424 805.8609 547.0115 805.7588 564.0367 808.5288 569.0704 810.6296 572.8895 814.2077 574.9999 818.3531 575.9685 820.2665 576.4629 822.2675 576.8014 824.2707 576.9011 829.1222 577.1418 834.2583 577.0157 839.1073 577.0157L851.6117 577.1809H872.1391C877.0782 577.1324 882.7109 576.1536 885.9557 572.0547 887.5134 570.0852 888.1926 567.3954 888.4678 564.8153ZM948.5314 491.125H1054.4505V513.8289H977.5834V597.7137H948.5314ZM1075.1655 491.125H1107.9006L1118.594 511.0098H1193.36L1204.4429 491.125H1235.951L1177.6765 597.7137H1135.0928ZM1128.221 529.3687 1155.9246 581.3532 1184.2756 529.3687ZM1256.1256 521.6817C1256.099 520.5059 1256.082 519.33 1256.082 518.1565 1256.082 512.2148 1256.8584 504.8201 1260.5049 499.8832 1265.816 492.7 1279.6693 491.2226 1287.7924 490.8453 1297.6336 490.3897 1307.5189 490.2902 1317.3676 490.2902 1332.3135 490.2902 1347.9191 490.4019 1362.7922 491.9207 1369.1089 492.5662 1377.721 494.1799 1382.497 498.7488 1388.8355 504.8124 1390.072 515.3791 1390.072 523.6702 1390.072 530.6635 1389.1666 539.2125 1385.0527 545.1154 1380.2769 551.9679 1370.5305 553.7273 1362.7749 554.129 1354.9564 554.5355 1347.033 554.9349 1339.2023 554.9349H1307.5944C1304.094 555.0103 1296.6403 554.9397 1293.3908 555.8207 1287.6681 557.2352 1284.2991 561.0229 1284.2991 567.0326 1284.2991 569.7714 1285.0634 572.3172 1286.7843 574.4619 1289.3136 577.6092 1294.8075 578.3567 1298.5634 578.6223 1308.5314 579.3304 1318.7673 579.3545 1328.7572 579.3545 1333.7765 579.3545 1338.971 579.3474 1343.9733 578.929 1348.4572 578.5517 1354.0167 577.2713 1356.0908 572.7557 1356.6798 571.4731 1356.9866 569.9758 1357.1447 568.4933H1385.447C1385.435 568.8782 1385.4179 569.2674 1385.3959 569.6617 1385.3937 576.8062 1384.3103 585.9077 1378.6461 590.883 1372.9354 595.8975 1363.9337 597.4041 1356.6067 597.8276 1345.0785 598.4946 1333.3674 598.5485 1321.8222 598.5485 1314.1837 598.5485 1306.5452 598.424 1298.9115 598.1323 1289.9733 597.7891 1278.1624 596.9443 1269.7719 593.646 1266.0474 592.1827 1262.776 589.9921 1260.456 586.6892 1256.4884 581.0394 1255.746 572.0717 1255.746 565.3896 1255.746 558.7055 1256.4959 549.5944 1260.663 544.0419 1265.108 538.122 1272.873 536.1384 1279.8933 535.5371 1287.006 534.9285 1294.1918 534.7383 1301.3263 534.7383H1332.0286C1335.2979 534.7043 1338.5571 534.685 1341.8141 534.6558 1345.4802 534.6238 1350.5092 534.4877 1353.9754 533.3049 1359.2577 531.6103 1361.3533 527.163 1361.3533 521.8325 1361.3533 518.6852 1360.5233 515.6155 1358.0283 513.5315 1355.2727 511.2289 1350.6599 510.3646 1347.1914 509.9703 1337.0967 508.824 1325.05 509.1503 1314.8604 509.1503 1308.1419 509.1503 1299.8049 509.1406 1293.2033 510.4182 1290.8472 510.876 1288.7487 511.8936 1287.1715 513.7291 1285.6039 515.552 1285.0172 518.8822 1284.7615 521.6817ZM1419.2141 521.6817C1419.1875 520.5059 1419.1705 519.33 1419.1705 518.1565 1419.1705 512.2148 1419.9469 504.8201 1423.5934 499.8832 1428.9046 492.7 1442.7578 491.2226 1450.8805 490.8453 1460.722 490.3897 1470.6074 490.2902 1480.456 490.2902 1495.402 490.2902 1511.0076 490.4019 1525.8804 491.9207 1532.1972 492.5662 1540.8095 494.1799 1545.5855 498.7488 1551.924 504.8124 1553.1605 515.3791 1553.1605 523.6702 1553.1605 530.6635 1552.2551 539.2125 1548.1412 545.1154 1543.3654 551.9679 1533.6187 553.7273 1525.8634 554.129 1518.0449 554.5355 1510.1215 554.9349 1502.2908 554.9349H1470.6828C1467.1823 555.0103 1459.7289 554.9397 1456.4793 555.8207 1450.7564 557.2352 1447.3877 561.0229 1447.3877 567.0326 1447.3877 569.7714 1448.1519 572.3172 1449.8728 574.4619 1452.4019 577.6092 1457.896 578.3567 1461.6519 578.6223 1471.6199 579.3304 1481.8558 579.3545 1491.8457 579.3545 1496.865 579.3545 1502.0595 579.3474 1507.0618 578.929 1511.5457 578.5517 1517.1052 577.2713 1519.1793 572.7557 1519.7683 571.4731 1520.0751 569.9758 1520.2332 568.4933H1548.5355C1548.5233 568.8782 1548.5064 569.2674 1548.4844 569.6617 1548.4819 576.8062 1547.3988 585.9077 1541.7343 590.883 1536.0239 595.8975 1527.0222 597.4041 1519.6952 597.8276 1508.167 598.4946 1496.4559 598.5485 1484.9107 598.5485 1477.2722 598.5485 1469.6337 598.424 1462 598.1323 1453.0618 597.7891 1441.2509 596.9443 1432.8604 593.646 1429.1359 592.1827 1425.8645 589.9921 1423.5446 586.6892 1419.5769 581.0394 1418.8346 572.0717 1418.8346 565.3896 1418.8346 558.7055 1419.5844 549.5944 1423.7515 544.0419 1428.1963 538.122 1435.9616 536.1384 1442.9818 535.5371 1450.0945 534.9285 1457.28 534.7383 1464.4148 534.7383H1495.1171C1498.3864 534.7043 1501.6456 534.685 1504.9026 534.6558 1508.5687 534.6238 1513.5977 534.4877 1517.0639 533.3049 1522.3462 531.6103 1524.4418 527.163 1524.4418 521.8325 1524.4418 518.6852 1523.6118 515.6155 1521.1168 513.5315 1518.3612 511.2289 1513.7484 510.3646 1510.2797 509.9703 1500.1852 508.824 1488.1382 509.1503 1477.9489 509.1503 1471.2304 509.1503 1462.8934 509.1406 1456.2918 510.4182 1453.9354 510.876 1451.8372 511.8936 1450.26 513.7291 1448.6923 515.552 1448.1057 518.8822 1447.85 521.6817Z" fill="#00497a" fill-rule="evenodd"/>
<path transform="matrix(1,0,0,-1,0,1264)" d="M868.4144 874.563H921.4092C950.54 874.563 974.374 850.729 974.374 821.5982V814.9759H934.5078C933.6523 830.7558 920.4803 843.3995 904.4966 843.3995H868.4144Z" fill="#00497a" fill-rule="evenodd"/>
<path transform="matrix(1,0,0,-1,0,1264)" d="M934.5532 746.4665H876.4115V777.0132H934.5532V777.0441H974.374V721.3275C974.374 692.1967 950.54 668.3624 921.4092 668.3624H868.4144V699.5262H904.4966C921.028 699.5262 934.5532 713.0514 934.5532 729.5828Z" fill="#00497a" fill-rule="evenodd"/>
<path transform="matrix(1,0,0,-1,0,1264)" d="M788.5905 874.563H842.118V843.3995H805.5031C788.9717 843.3995 775.4465 829.8746 775.4465 813.3435V777.0132H834.1458V746.4665H775.4465V729.5828C775.4465 713.0514 788.9717 699.5262 805.5031 699.5262H842.118V668.3624H788.5905C759.4597 668.3624 735.6257 692.1967 735.6257 721.3275V821.5982C735.6257 850.729 759.4597 874.563 788.5905 874.563" fill="#484c4a" fill-rule="evenodd"/>
</g>
<g inkscape:groupmode="layer" inkscape:label="Layer 1">
</g>
</svg>
